<svg width="16" height="16" viewBox="0 0 16 16" fill="none" xmlns="http://www.w3.org/2000/svg">
<path fill-rule="evenodd" clip-rule="evenodd" d="M8.00002 3.48175C9.38331 3.48175 10.3164 4.07926 10.8485 4.57856L12.9275 2.54863C11.6506 1.36178 9.98902 0.633301 8.00002 0.633301C5.11883 0.633301 2.63054 2.28671 1.41913 4.69315L3.80102 6.543C4.39854 4.76682 6.05194 3.48175 8.00002 3.48175Z" fill="#EA4335"/>
<path fill-rule="evenodd" clip-rule="evenodd" d="M15.072 8.16367C15.072 7.55796 15.0229 7.11596 14.9165 6.65759H8V9.39144H12.0599C11.978 10.0708 11.536 11.094 10.5538 11.7815L12.8784 13.5823C14.2699 12.2972 15.072 10.4064 15.072 8.16367Z" fill="#4285F4"/>
<path fill-rule="evenodd" clip-rule="evenodd" d="M3.80915 9.45689C3.65363 8.99852 3.5636 8.50741 3.5636 7.99993C3.5636 7.49245 3.65363 7.00134 3.80097 6.54297L1.41908 4.69312C0.919782 5.69171 0.633301 6.81308 0.633301 7.99993C0.633301 9.18678 0.919782 10.3082 1.41908 11.3067L3.80915 9.45689Z" fill="#FBBC05"/>
<path fill-rule="evenodd" clip-rule="evenodd" d="M7.99995 15.3666C9.98895 15.3666 11.6587 14.7118 12.8783 13.5822L10.5537 11.7815C9.93165 12.2153 9.09677 12.5182 7.99995 12.5182C6.05188 12.5182 4.39847 11.2331 3.80913 9.45691L1.42725 11.3068C2.63865 13.7132 5.11876 15.3666 7.99995 15.3666Z" fill="#34A853"/>
</svg>
