<svg width="202" height="38" viewBox="0 0 202 38" fill="none" xmlns="http://www.w3.org/2000/svg">
<path d="M23.1953 29.9453V37H5.92188H0.390625V2.875H9.13281V29.9453H23.1953ZM30.7188 0.90625C31.6094 0.90625 32.4062 1.08594 33.1094 1.44531C33.8125 1.80469 34.3594 2.30469 34.75 2.94531C35.1562 3.58594 35.3594 4.3125 35.3594 5.125C35.3594 5.95312 35.1641 6.6875 34.7734 7.32812C34.3828 7.96875 33.8281 8.46875 33.1094 8.82812C32.4062 9.1875 31.6094 9.36719 30.7188 9.36719C29.8125 9.36719 29.0078 9.1875 28.3047 8.82812C27.6016 8.46875 27.0469 7.96875 26.6406 7.32812C26.25 6.6875 26.0547 5.95312 26.0547 5.125C26.0547 4.3125 26.25 3.58594 26.6406 2.94531C27.0469 2.30469 27.6016 1.80469 28.3047 1.44531C29.0078 1.08594 29.8125 0.90625 30.7188 0.90625ZM26.5469 37V11.6406H34.9844V37H26.5469ZM49.6562 11.6406H54.5312V17.7109H49.6562V37H41.2188V17.7109H37.5859V11.6406H41.2188V9.74219C41.2188 7.77344 41.6172 6.10156 42.4141 4.72656C43.2266 3.33594 44.375 2.28906 45.8594 1.58594C47.3438 0.867187 49.1016 0.507812 51.1328 0.507812C52.2422 0.507812 53.5156 0.679687 54.9531 1.02344L55.0234 7.46875C54.4766 7.32812 53.8438 7.25781 53.125 7.25781C52.0156 7.25781 51.1562 7.46875 50.5469 7.89062C49.9531 8.3125 49.6562 8.92969 49.6562 9.74219V11.6406ZM80.3359 27.1328H64.9375C65.2656 28.2578 65.875 29.1328 66.7656 29.7578C67.6719 30.3672 68.7891 30.6719 70.1172 30.6719C71.2422 30.6719 72.3047 30.4844 73.3047 30.1094C74.3203 29.7344 75.1797 29.125 75.8828 28.2812L79.6094 33.1797C79.0469 33.9297 78.2734 34.6328 77.2891 35.2891C76.3203 35.9297 75.1719 36.4531 73.8438 36.8594C72.5156 37.2656 71.0859 37.4688 69.5547 37.4688C66.8359 37.4688 64.4688 36.9062 62.4531 35.7812C60.4375 34.6562 58.8984 33.1562 57.8359 31.2812C56.7891 29.3906 56.2656 27.3438 56.2656 25.1406V24.2734C56.2656 21.8203 56.7188 19.6094 57.625 17.6406C58.5312 15.6562 59.9141 14.0859 61.7734 12.9297C63.6328 11.7578 65.9297 11.1719 68.6641 11.1719C71.0391 11.1719 73.1016 11.6641 74.8516 12.6484C76.6172 13.6328 77.9688 15.0547 78.9062 16.9141C79.8594 18.7734 80.3359 20.9844 80.3359 23.5469V27.1328ZM72.1562 21.1328C72.2188 19.0234 71.0312 17.9688 68.5938 17.9688C67.4375 17.9688 66.5703 18.3125 65.9922 19C65.4141 19.6875 65.0312 20.625 64.8438 21.8125H72.1562V21.1328Z" fill="#718096"/>
<path d="M95.3828 23.2422C93.0703 22.4609 91.0781 21.6172 89.4062 20.7109C87.7344 19.7891 86.3594 18.6172 85.2812 17.1953C84.2188 15.7734 83.6875 14.0625 83.6875 12.0625C83.6875 10.0938 84.2578 8.38281 85.3984 6.92969C86.5547 5.47656 88.1484 4.35937 90.1797 3.57812C92.2109 2.79688 94.5 2.40625 97.0469 2.40625C99.5312 2.40625 101.742 2.82812 103.68 3.67188C105.617 4.51562 107.133 5.74219 108.227 7.35156C109.336 8.94531 109.891 10.8516 109.891 13.0703H101.172C101.172 11.9141 100.797 11 100.047 10.3281C99.3125 9.64063 98.2422 9.29688 96.8359 9.29688C95.8984 9.29688 95.0938 9.42969 94.4219 9.69531C93.75 9.96094 93.2422 10.3125 92.8984 10.75C92.5547 11.1719 92.3828 11.6406 92.3828 12.1562C92.3828 13.0156 92.875 13.75 93.8594 14.3594C94.8594 14.9688 96.3828 15.6094 98.4297 16.2812C102.195 17.5 105.039 19.0156 106.961 20.8281C108.898 22.6406 109.867 24.9531 109.867 27.7656C109.867 29.8281 109.344 31.5859 108.297 33.0391C107.25 34.4922 105.773 35.5938 103.867 36.3438C101.961 37.0938 99.7188 37.4688 97.1406 37.4688C94.625 37.4688 92.2656 37.0547 90.0625 36.2266C87.875 35.3828 86.0938 34.0703 84.7188 32.2891C83.3438 30.5078 82.6562 28.2734 82.6562 25.5859H91.4453C91.4453 26.8516 91.6484 27.8516 92.0547 28.5859C92.4766 29.3203 93.1016 29.8438 93.9297 30.1562C94.7578 30.4531 95.8281 30.6016 97.1406 30.6016C98.5 30.6016 99.5 30.3359 100.141 29.8047C100.797 29.2578 101.125 28.5938 101.125 27.8125C101.125 27.1406 100.984 26.5781 100.703 26.125C100.422 25.6562 99.8672 25.1953 99.0391 24.7422C98.2266 24.2891 97.0078 23.7891 95.3828 23.2422ZM124.211 27.9531L122.078 30.0391V37H113.664V0.976562H122.078V19.5859L122.641 18.8359L128.359 11.6406H138.414L129.672 22.1172L138.906 37H129.32L124.211 27.9531ZM144.719 0.90625C145.609 0.90625 146.406 1.08594 147.109 1.44531C147.812 1.80469 148.359 2.30469 148.75 2.94531C149.156 3.58594 149.359 4.3125 149.359 5.125C149.359 5.95312 149.164 6.6875 148.773 7.32812C148.383 7.96875 147.828 8.46875 147.109 8.82812C146.406 9.1875 145.609 9.36719 144.719 9.36719C143.812 9.36719 143.008 9.1875 142.305 8.82812C141.602 8.46875 141.047 7.96875 140.641 7.32812C140.25 6.6875 140.055 5.95312 140.055 5.125C140.055 4.3125 140.25 3.58594 140.641 2.94531C141.047 2.30469 141.602 1.80469 142.305 1.44531C143.008 1.08594 143.812 0.90625 144.719 0.90625ZM140.547 37V11.6406H148.984V37H140.547ZM153.953 37V1H162.391V37H153.953ZM167.359 37V1H175.797V37H167.359ZM188.57 27.3203C185.898 26.7422 183.75 25.8047 182.125 24.5078C180.5 23.1953 179.688 21.4766 179.688 19.3516C179.688 17.8672 180.102 16.5078 180.93 15.2734C181.773 14.0234 182.992 13.0312 184.586 12.2969C186.18 11.5469 188.07 11.1719 190.258 11.1719C192.539 11.1719 194.531 11.5156 196.234 12.2031C197.953 12.8906 199.273 13.8672 200.195 15.1328C201.117 16.3828 201.578 17.8438 201.578 19.5156H193.164C193.164 18.5469 192.945 17.8594 192.508 17.4531C192.086 17.0312 191.328 16.8203 190.234 16.8203C189.516 16.8203 188.891 17 188.359 17.3594C187.844 17.7188 187.586 18.2188 187.586 18.8594C187.586 20.0938 188.922 20.9219 191.594 21.3438C193.5 21.6406 195.164 22.0781 196.586 22.6562C198.023 23.2188 199.195 24.0625 200.102 25.1875C201.023 26.3125 201.484 27.7734 201.484 29.5703C201.484 31.0703 201.023 32.4219 200.102 33.625C199.18 34.8125 197.867 35.75 196.164 36.4375C194.461 37.125 192.484 37.4688 190.234 37.4688C187.891 37.4688 185.859 37.0469 184.141 36.2031C182.438 35.3438 181.133 34.25 180.227 32.9219C179.336 31.5781 178.891 30.2109 178.891 28.8203H186.695C186.727 29.8047 187.07 30.5469 187.727 31.0469C188.383 31.5469 189.297 31.7969 190.469 31.7969C191.422 31.7969 192.148 31.6172 192.648 31.2578C193.164 30.8828 193.422 30.3828 193.422 29.7578C193.422 29.3828 193.273 29.0703 192.977 28.8203C192.695 28.5547 192.211 28.3125 191.523 28.0938C190.852 27.8594 189.867 27.6016 188.57 27.3203Z" fill="#ACB6BF"/>
</svg>
