<svg width="104" height="104" viewBox="0 0 104 104" fill="none" xmlns="http://www.w3.org/2000/svg">
<circle cx="52" cy="52" r="51.5" stroke="#718096"/>
<path d="M48.1953 60.9453V68H30.9219H25.3906V33.875H34.1328V60.9453H48.1953ZM63.2422 54.2422C60.9297 53.4609 58.9375 52.6172 57.2656 51.7109C55.5938 50.7891 54.2188 49.6172 53.1406 48.1953C52.0781 46.7734 51.5469 45.0625 51.5469 43.0625C51.5469 41.0938 52.1172 39.3828 53.2578 37.9297C54.4141 36.4766 56.0078 35.3594 58.0391 34.5781C60.0703 33.7969 62.3594 33.4062 64.9062 33.4062C67.3906 33.4062 69.6016 33.8281 71.5391 34.6719C73.4766 35.5156 74.9922 36.7422 76.0859 38.3516C77.1953 39.9453 77.75 41.8516 77.75 44.0703H69.0312C69.0312 42.9141 68.6562 42 67.9062 41.3281C67.1719 40.6406 66.1016 40.2969 64.6953 40.2969C63.7578 40.2969 62.9531 40.4297 62.2812 40.6953C61.6094 40.9609 61.1016 41.3125 60.7578 41.75C60.4141 42.1719 60.2422 42.6406 60.2422 43.1562C60.2422 44.0156 60.7344 44.75 61.7188 45.3594C62.7188 45.9688 64.2422 46.6094 66.2891 47.2812C70.0547 48.5 72.8984 50.0156 74.8203 51.8281C76.7578 53.6406 77.7266 55.9531 77.7266 58.7656C77.7266 60.8281 77.2031 62.5859 76.1562 64.0391C75.1094 65.4922 73.6328 66.5938 71.7266 67.3438C69.8203 68.0938 67.5781 68.4688 65 68.4688C62.4844 68.4688 60.125 68.0547 57.9219 67.2266C55.7344 66.3828 53.9531 65.0703 52.5781 63.2891C51.2031 61.5078 50.5156 59.2734 50.5156 56.5859H59.3047C59.3047 57.8516 59.5078 58.8516 59.9141 59.5859C60.3359 60.3203 60.9609 60.8438 61.7891 61.1562C62.6172 61.4531 63.6875 61.6016 65 61.6016C66.3594 61.6016 67.3594 61.3359 68 60.8047C68.6562 60.2578 68.9844 59.5938 68.9844 58.8125C68.9844 58.1406 68.8438 57.5781 68.5625 57.125C68.2812 56.6562 67.7266 56.1953 66.8984 55.7422C66.0859 55.2891 64.8672 54.7891 63.2422 54.2422Z" fill="#718096"/>
</svg>
